# xmcd CD database file
#
# Track frame offsets:
#	150
#	28700
#	51176
#	77253
#	117221
#	129435
#	152652
#	170479
#	203041
#	231172
#	258913
#
# Disc length: 3812 seconds
#
# Revision: 0
# Processed by: cddbd v1.5.1PL2 Copyright (c) Steve Scherf et al.
# Submitted via: CDex 1.51
#
DISCID=830ee20b
DTITLE=Big Mike Griffin  - Twin Brothers Of Different Mothers
DYEAR=2000
DGENRE=Blues
TTITLE0=Twin Brothers
TTITLE1=All About A Woman
TTITLE2=Let's Have A Party
TTITLE3=Love Will Never Die
TTITLE4=Born To Ride
TTITLE5=You Don't Have To Go
TTITLE6=Panhead
TTITLE7=Born In Chicago
TTITLE8=Mean Disposition
TTITLE9=Don't Let Him Ride
TTITLE10=That's My Baby
EXTD=YEAR: 2000
EXTT0=
EXTT1=
EXTT2=
EXTT3=
EXTT4=
EXTT5=
EXTT6=
EXTT7=
EXTT8=
EXTT9=
EXTT10=
PLAYORDER=
